<?xml version="1.0" encoding="utf-8"?>
<!-- Uploaded to: SVG Repo, www.svgrepo.com, Generator: SVG Repo Mixer Tools -->
<svg fill="#000000" width="800px" height="800px" viewBox="0 0 32 32" version="1.1" xmlns="http://www.w3.org/2000/svg">
<title>lion</title>
<path d="M24.162 12.116l0-0c-0.414-1.43-1.488-2.364-3.546-3.307 0.733-3.675-1.030-5.775-4.376-7.727l0.268 2.698c-2.369-1.583-5.763-3.216-8.804-3.074-1.014 0.047-2.060 0.206-3.159 0.527l3.723 3.911c-2.034 0.012-5.435 0.296-7.315 1.693l2.012 3.271-2.294 1.191v4.224l2.479 1.4-2.479 2.135v2.882c1.78-0.145 4.183 0.115 6.33-0.603-1.518 1.78-2.002 4.331-3.811 6.558 2.419-0.092 4.831-0.406 7.408-1.805l-0.602 4.776c4.108-1.53 8.165-5.386 7.817-8.677l0.058-0.275c0.239 0.142 0.491 0.269 0.755 0.379l7.263 2.574c0.397-0.859 0.828-1.723 1.284-2.586-0.286 0.111-0.597 0.173-0.922 0.173-1.405 0-2.544-1.139-2.544-2.544s1.139-2.544 2.544-2.544c1.252 0 2.291 0.904 2.504 2.094 0.758-1.281 1.561-2.552 2.391-3.8l-6.986-3.544z"></path>
</svg>